<?xml version="1.0" encoding="utf-8"?>
<!-- Generator: Adobe Illustrator 18.0.0, SVG Export Plug-In . SVG Version: 6.00 Build 0)  -->
<!DOCTYPE svg PUBLIC "-//W3C//DTD SVG 1.1//EN" "http://www.w3.org/Graphics/SVG/1.1/DTD/svg11.dtd">
<svg version="1.1" id="Layer_1" xmlns="http://www.w3.org/2000/svg" xmlns:xlink="http://www.w3.org/1999/xlink" x="0px" y="0px"
	 viewBox="0 0 792 612" enable-background="new 0 0 792 612" xml:space="preserve">
<path fill="#3F3D56" stroke="#3F3D56" stroke-width="0.4982" stroke-miterlimit="10" d="M684.7,525H63.2c-0.5,0-0.9-0.5-0.9-1.1
	s0.4-1.1,0.9-1.1h621.4c0.5,0,0.9,0.5,0.9,1.1S685.1,525,684.7,525z"/>
<line fill="none" stroke="#3F3D56" stroke-width="2.2536" stroke-miterlimit="10" x1="386.5" y1="126.8" x2="386.5" y2="186.8"/>
<polyline fill="none" stroke="#3F3D56" stroke-width="2.2536" stroke-linejoin="bevel" stroke-miterlimit="10" points="661.7,484.5 
	661.7,127.9 386.5,127.9 "/>
<path fill="none" stroke="#CCCCCC" stroke-width="4.5" stroke-miterlimit="10" d="M393.5,252.6"/>
<path fill="none" stroke="#CCCCCC" stroke-width="4.5" stroke-miterlimit="10" d="M390.1,187.5"/>
<path fill="#F2F2F2" d="M406.5,522.8c-12.5,1.9-25.2,2.4-37.8,1.9c-30.5-1.6-60.5-10.5-86-27.1c-11.4-7.4-22.2-16.5-28.1-28.6
	c-8-16.6-5.2-37.5,6.2-52c4.2-5.2,9.2-9.6,15-12.9c0.8-0.5,1.8-0.9,2.6-1.4c9.6-4.9,20.5-6.8,31.3-5.7c18.3,2,35.1,13.2,44.9,28.7
	c8.7,13.9,11.7,30.3,13.5,46.8c0.7,5.9,1.2,11.7,0.8,17.7c-0.3,6.2-1.1,12.3-1.1,18.5c0,2.6-0.2,5.4,0.1,7.9c0.1,1.4,1,2.5,1.3,3.9
	c0.1,0.5-0.1,1.7,0.2,2.1c0.4,0.5,1.7,0.3,2.3,0.3L406.5,522.8z"/>
<path fill="#FFFFFF" d="M366.8,523.6c-0.9,0.5-2.1,0-2.5-0.9l0,0c-0.2-0.4-0.3-0.7-0.5-1c-1.3-3.3-2.7-6.5-4.2-9.7
	c-18.9-41.3-47-77.8-82.3-106.5c-0.4-0.3-0.7-0.7-0.6-1.3c0.2-1,1.2-1.7,2.2-1.5c0.2,0,0.3,0.1,0.4,0.1c0.2,0.1,0.3,0.2,0.4,0.3
	c15.1,12.3,28.9,26,41.3,41.1c12.4,15,23.3,31.2,32.6,48.2c2.5,4.7,4.9,9.4,7.2,14.2c0.5,0.9,0.9,1.9,1.3,2.9
	c1.9,4,3.6,8.1,5.3,12.2c0,0.1,0.1,0.2,0.1,0.2C368,522.5,367.7,523.3,366.8,523.6C367,523.5,366.9,523.6,366.8,523.6z"/>
<circle fill="#9A959A" cx="243.1" cy="364.1" r="36.4"/>
<circle fill="#2F2E41" cx="154.4" cy="186.8" r="27"/>
<ellipse transform="matrix(-0.7071 0.7071 -0.7071 -0.7071 335.2908 193.7594)" fill="#2F2E41" cx="127.5" cy="166.3" rx="11.2" ry="8.4"/>
<ellipse transform="matrix(-0.3928 0.9196 -0.9196 -0.3928 386.5658 63.4013)" fill="#2F2E41" cx="172.4" cy="159.3" rx="8.4" ry="11.2"/>
<path fill="#FFB8B8" d="M229.7,342.8c2.6-4.9,0.7-10.9-4.2-13.5c-0.6-0.3-1-0.5-1.6-0.7l-39-82.6L167,258.5l44,77.2
	c-1.3,5.4,2,10.8,7.4,12.2C222.8,349,227.5,346.9,229.7,342.8L229.7,342.8z"/>
<path fill="#CCCCCC" d="M193.8,259.7l-20.7,9.2c-2.2,1-4.9,0-6-2.2c-0.1-0.2-0.2-0.4-0.2-0.7l-6.1-21.8c-2.8-6.3,0.1-13.7,6.4-16.4
	c6.3-2.8,13.6,0.1,16.4,6.3l12.1,19c1.3,2.1,0.7,4.9-1.4,6.3C194.2,259.5,194,259.6,193.8,259.7L193.8,259.7z"/>
<path fill="#FFB8B8" d="M98.1,351c5.4-1.2,8.8-6.6,7.5-12c-0.1-0.6-0.3-1.1-0.6-1.7l37-83.5l-21.2-5.3l-29.7,83.7
	c-4.9,2.5-6.9,8.6-4.4,13.5C88.8,349.9,93.5,352,98.1,351L98.1,351z"/>
<polygon fill="#FFB8B8" points="88,502.3 98.7,506.2 119,466.6 103.1,460.8 "/>
<path fill="#2F2E41" d="M115.8,523.7L82,511.4l0,0l4.8-13.1l0,0l20.7,7.6C114.8,508.5,118.4,516.5,115.8,523.7L115.8,523.7
	L115.8,523.7z"/>
<path fill="#2F2E41" d="M113.4,479.5c-0.7,0-1.3-0.2-1.9-0.5l-12.3-5.9c-2.1-1-3.1-3.5-2.3-5.6l34.9-96.6c0.8-2.3,3.5-3.5,5.8-2.7
	c0.9,0.4,1.8,1,2.3,2l18.5,30.7c0.8,1.4,0.8,3.2,0.1,4.6l-41,71.7C116.6,478.6,115.1,479.5,113.4,479.5z"/>
<circle fill="#FFB8B8" cx="155.4" cy="193.3" r="23"/>
<path fill="#CCCCCC" d="M187.8,297.5l-40.6-11.2l-21.6-43.2c-3.4-6.7-0.7-14.9,6.1-18.3c1.9-0.9,4-1.4,6.1-1.4H170
	c3.4,0,6.6,1.2,9.1,3.5c8.7,7.7,26.9,30.1,8.8,70.2L187.8,297.5z"/>
<path fill="#CCCCCC" d="M137,268.7l-20.5-9.6c-2.2-1-3.2-3.7-2.1-6c0.1-0.2,0.2-0.4,0.3-0.6l12.5-18.9c3-6.3,10.4-8.9,16.6-5.9
	c6.2,3,8.9,10.4,6,16.6l-6.4,21.7c-0.7,2.3-3.2,3.7-5.6,3C137.4,268.9,137.2,268.8,137,268.7L137,268.7z"/>
<polygon fill="#FFB8B8" points="161.8,513.1 173.3,513.1 178.7,468.9 161.8,468.9 "/>
<path fill="#2F2E41" d="M195.3,523.7h-35.9l0,0v-13.9l0,0h22C189.2,509.8,195.3,516.1,195.3,523.7L195.3,523.7L195.3,523.7z"/>
<path fill="#2F2E41" d="M166.2,496.3c-2.1,0-3.9-1.5-4.4-3.5c-3.3-15.5-20.3-94.9-33.7-135.8c-13.5-41.6,9.5-60.6,14.3-63.9
	c0.5-0.4,0.9-0.8,1.2-1.4l3.5-7.7c0.7-1.6,2.3-2.6,4.1-2.6l0,0c25.9,0.2,34.7,8.3,37.2,11.9c0.7,1,1,2.4,0.7,3.6l-16.5,67.8
	c-0.1,0.5-0.1,0.8-0.1,1.3l16.3,123.1c0.4,2.4-1.4,4.8-3.8,5H185l-18.3,2.1C166.5,496.3,166.3,496.3,166.2,496.3z"/>
<path fill="#2F2E41" d="M131.3,178.9c5.2,3.6,11.5,5.5,17.8,5.5c-2.2,1.6-4.9,2.6-7.6,3.1c8.5,1.8,17.2,1.9,25.7,0.2
	c1.9-0.3,3.7-0.9,5.4-1.9s2.9-2.5,3.4-4.5c0.6-3.2-2-6.2-4.6-8.1c-8.1-6-18.5-8.1-28.2-5.6c-3.2,0.8-6.3,2.1-8.4,4.8
	c-2.1,2.6-2.6,6.4-0.7,9.1L131.3,178.9z"/>
<path fill="#CCCCCC" d="M587.8,272.2h-139c-5.9,0-10.7-4-10.7-8.9c0-4.9,4.7-8.9,10.6-8.9l0,0h139c5.9,0,10.7,4,10.7,8.9
	C598.6,268.2,593.7,272.2,587.8,272.2L587.8,272.2z"/>
<path fill="#CCCCCC" d="M587.7,310.5H448.8c-5.9,0-10.6-4-10.6-8.9s4.7-8.9,10.6-8.9l0,0h138.8c5.9,0,10.6,4,10.6,8.9
	S593.6,310.5,587.7,310.5L587.7,310.5z"/>
<path fill="#CCCCCC" d="M587.7,349.7H448.9c-5.9,0-10.7-4-10.7-8.9c0-4.9,4.8-8.9,10.7-8.9l0,0h138.7c5.9,0,10.7,4,10.7,8.9
	C598.3,345.7,593.6,349.7,587.7,349.7L587.7,349.7z"/>
<path fill="#CCCCCC" d="M587.6,390.8H448.8c-5.9,0-10.7-4-10.7-8.9c0-4.9,4.8-8.9,10.7-8.9h138.8c5.9,0,10.7,4,10.7,8.9
	C598.3,386.7,593.5,390.8,587.6,390.8L587.6,390.8z"/>
<path fill="#FFFFFF" stroke="#3F3D56" stroke-width="2.2536" stroke-miterlimit="10" d="M563.5,145.7h-83.3c-4.9,0-8.9-4-8.9-8.9
	c0-4.9,4-8.9,8.9-8.9l0,0h83.2c4.9,0,8.9,4,8.9,8.9C572.2,141.7,568.3,145.7,563.5,145.7L563.5,145.7z"/>
<circle fill="#CCCCCC" cx="408.7" cy="381.9" r="12.1"/>
<path fill="#CCCCCC" d="M587.6,430.9H448.9c-5.9,0-10.6-4-10.6-8.9c0-4.9,4.8-8.9,10.6-8.9h138.8c5.9,0,10.6,4,10.6,8.9
	C598.3,426.9,593.5,430.9,587.6,430.9L587.6,430.9z"/>
<circle fill="#CCCCCC" cx="408.7" cy="423.9" r="12.1"/>
<line fill="none" stroke="#3F3D56" stroke-width="2.2536" stroke-linejoin="bevel" stroke-miterlimit="10" x1="662.8" y1="484.5" x2="632.1" y2="484.5"/>
<path fill="#3F3D56" d="M629.6,525H370.3c-1.4,0-2.5-1.1-2.5-2.4V189.2c0-1.3,1.1-2.4,2.5-2.4h259.3c1.4,0,2.5,1.1,2.5,2.4v333.4
	C632.1,523.9,631,525,629.6,525z M370.3,188c-0.7,0-1.3,0.5-1.3,1.2c0,1.3,0,2.6,0,3.9c0,3.7,0,7.3,0,11c0,5.7,0,11.4,0,17.1
	c0,7.4,0,14.7,0,22.1c0,8.7,0,17.4,0,26.1c0,9.7,0,19.4,0,29c0,10.3,0,20.6,0,30.9c0,10.6,0,21.2,0,31.8c0,10.5,0,21.1,0,31.6
	c0,10.1,0,20.3,0,30.4c0,9.4,0,18.8,0,28.2c0,8.3,0,16.6,0,24.9c0,6.8,0,13.7,0,20.5c0,5.1,0,10.1,0,15.2c0,2.9,0,5.8,0,8.8
	c0,0.3-0.1,1.1,0,1.3c0.5,0.8,3.4,0.4,4.4,0.4c1.8,0,3.5,0,5.3,0.1c3.5,0,7.1,0.1,10.6,0.1c5.1,0.1,10.3,0,15.4,0
	c3.2,0,6.2,1.1,9.4,1.1c5.7,0,11.5,0,17.2,0c13,0,26,0,39,0c13.9,0,27.8,0,41.8,0c13.5,0,27.1,0,40.6,0c11.9,0,23.7,0,35.6,0
	c8.9,0,17.7,0,26.6,0c4.6,0,9.1,0,13.7,0c0.3,0,0.7,0,1,0c0.7,0,1.3-0.5,1.3-1.2V189.2c0-0.7-0.6-1.2-1.3-1.2H370.3z"/>
<circle fill="#CCCCCC" cx="408.7" cy="340.8" r="12.1"/>
<circle fill="#CCCCCC" cx="407.5" cy="301.6" r="12.1"/>
<circle fill="#CCCCCC" cx="407.5" cy="263.4" r="12.1"/>
<path id="b20583ce-2285-4a88-ae2b-42b53348cdcc-310" fill="#FFFFFF" d="M226.3,361.5c-1.5,0-2.7,1.2-2.7,2.7s1.2,2.7,2.7,2.7h14.2
	V381c0,1.5,1.2,2.7,2.7,2.7c1.5,0,2.7-1.2,2.7-2.7v-14.2h14.2c1.5,0,2.7-1.2,2.7-2.7s-1.2-2.7-2.7-2.7l0,0h-14.2v-14.2
	c0-1.5-1.2-2.7-2.7-2.7s-2.7,1.2-2.7,2.7v14.2H226.3z"/>
</svg>
